<svg width="25" height="24" viewBox="0 0 25 24" fill="none" xmlns="http://www.w3.org/2000/svg">
<g clip-path="url(#clip0_248_156447)">
<path d="M20.7148 0H4.29875C2.04543 0 0.21875 1.82668 0.21875 4.08V19.8816C0.21875 22.1349 2.04543 23.9616 4.29875 23.9616H20.7148C22.9681 23.9616 24.7948 22.1349 24.7948 19.8816V4.08C24.7948 1.82668 22.9681 0 20.7148 0Z" fill="#00005B"/>
<path d="M10.0908 14.3361H6.28241L5.5075 16.7477C5.49756 16.789 5.47432 16.8259 5.44135 16.8528C5.40837 16.8796 5.36749 16.8949 5.325 16.8962L3.38081 16.8961C3.27073 16.8961 3.23226 16.8356 3.26542 16.7146L6.56273 7.25778L6.59566 7.15842L6.6066 7.12443L6.62868 7.05339C6.63962 7.01672 6.65057 6.97784 6.66161 6.9357C6.70481 6.71576 6.72689 6.49218 6.72756 6.26802C6.72533 6.25235 6.72678 6.23637 6.73179 6.22135C6.7368 6.20634 6.74524 6.19269 6.75643 6.1815C6.76763 6.17031 6.78127 6.16187 6.79629 6.15686C6.8113 6.15185 6.82728 6.1504 6.84295 6.15263H9.46433C9.54113 6.15263 9.5851 6.18011 9.59623 6.23509L13.3386 16.7313C13.3716 16.8412 13.3386 16.8961 13.2397 16.8961H11.0964C11.0596 16.9001 11.0226 16.8906 10.9923 16.8694C10.962 16.8482 10.9404 16.8166 10.9316 16.7807L10.0908 14.3361ZM6.87598 12.3027H9.48084L9.44369 12.1801L9.38407 11.986L9.29681 11.708L9.12929 11.1831L8.96974 10.6787L8.6729 9.73899C8.59089 9.47959 8.51217 9.21915 8.43674 8.95775L8.35246 8.66053L8.26145 8.3348L8.17831 8.03269H8.1618C8.07928 8.42841 7.97883 8.82017 7.86074 9.20677L7.74938 9.56418L7.48154 10.4282L7.3458 10.8683C7.32129 10.9478 7.29681 11.0264 7.27236 11.1041L7.1994 11.3343L7.12682 11.5592L7.05463 11.7784L6.98282 11.9922C6.94705 12.0978 6.91143 12.2013 6.87598 12.3027ZM19.4057 13.3975H16.1579C16.1976 13.7188 16.3044 14.0282 16.4712 14.3057C16.6555 14.5805 16.9163 14.7955 17.2212 14.924C17.6345 15.1029 18.0816 15.1905 18.5319 15.1809C18.8892 15.1739 19.2451 15.1349 19.5953 15.0641C19.9085 15.0219 20.2155 14.9419 20.5095 14.8258C20.5645 14.782 20.592 14.8095 20.5921 14.9082V16.4745C20.5948 16.5172 20.5862 16.5598 20.5672 16.5981C20.5484 16.6281 20.523 16.6534 20.4931 16.6723C20.1669 16.8168 19.8237 16.919 19.4717 16.9766C18.9934 17.0664 18.5073 17.1078 18.0208 17.1002C17.2647 17.1002 16.6274 16.9867 16.1088 16.7599L16.0589 16.7375C15.5603 16.5179 15.12 16.1848 14.773 15.7648C14.4489 15.3691 14.2078 14.9121 14.0641 14.4212C13.9218 13.9366 13.8497 13.4342 13.8499 12.9292C13.8483 12.3777 13.9346 11.8295 14.1054 11.3052C14.27 10.7938 14.5301 10.3183 14.872 9.90392C15.2094 9.49447 15.6311 9.16266 16.1085 8.93115C16.592 8.69499 17.1636 8.61023 17.823 8.61023C18.37 8.59654 18.9132 8.70349 19.4141 8.92348C19.8352 9.10306 20.2059 9.38306 20.4939 9.73899C20.764 10.0875 20.9705 10.4809 21.1038 10.9013C21.2337 11.3063 21.3004 11.7289 21.3017 12.1543C21.3017 12.3962 21.2935 12.616 21.277 12.8138L21.2623 12.9831L21.247 13.1438L21.2379 13.2252L21.2358 13.2424C21.2315 13.2788 21.214 13.3123 21.1867 13.3366C21.1593 13.3609 21.124 13.3743 21.0874 13.3743L21.0422 13.3753L20.9859 13.3782L20.942 13.3813L20.8395 13.3901L20.7494 13.399C20.7249 13.4016 20.6995 13.404 20.6731 13.4062L20.5914 13.4126L20.5041 13.4184L20.4115 13.4232L20.3134 13.4273L20.2622 13.429L20.1559 13.4319C20.0508 13.4345 19.9431 13.428 19.8326 13.4199L19.665 13.4076C19.5787 13.4013 19.4922 13.3979 19.4057 13.3975ZM16.158 11.8955H18.4031L18.5943 11.8943L18.7243 11.8925L18.8085 11.8905L18.903 11.8873C18.9875 11.8788 19.0691 11.8518 19.142 11.8081V11.7092C19.1388 11.5803 19.1166 11.4525 19.0761 11.33C18.9872 11.0487 18.8084 10.8044 18.5671 10.6346C18.3259 10.4648 18.0356 10.379 17.7408 10.3902C17.4633 10.3734 17.187 10.4377 16.9454 10.5753C16.7039 10.7129 16.5076 10.9179 16.3806 11.1651C16.2675 11.395 16.1924 11.6416 16.158 11.8955Z" fill="#9999FF"/>
</g>
<defs>
<clipPath id="clip0_248_156447">
<rect width="24.576" height="24" fill="white" transform="translate(0.21875)"/>
</clipPath>
</defs>
</svg>
