<svg width="26" height="24" viewBox="0 0 26 24" fill="none" xmlns="http://www.w3.org/2000/svg">
<g clip-path="url(#clip0_248_156435)">
<path d="M20.9843 0H4.56828C2.31496 0 0.488281 1.82668 0.488281 4.08V19.8816C0.488281 22.1349 2.31496 23.9616 4.56828 23.9616H20.9843C23.2376 23.9616 25.0643 22.1349 25.0643 19.8816V4.08C25.0643 1.82668 23.2376 0 20.9843 0Z" fill="#330000"/>
<path d="M12.3993 14.3799H8.59103L7.81612 16.7869C7.80557 16.8308 7.78004 16.8696 7.74392 16.8967C7.7078 16.9238 7.66336 16.9375 7.61826 16.9353H5.68933C5.57938 16.9353 5.54092 16.8748 5.57394 16.7539L8.87125 7.25774C8.90421 7.15886 8.93717 7.04622 8.97013 6.91982C9.01333 6.69979 9.03541 6.4763 9.03609 6.25214C9.03384 6.23646 9.03528 6.22047 9.04028 6.20544C9.04529 6.19042 9.05372 6.17676 9.06492 6.16555C9.07611 6.15435 9.08976 6.1459 9.10479 6.14089C9.11981 6.13587 9.1358 6.13442 9.15148 6.13665H11.7729C11.8497 6.13665 11.8936 6.16417 11.9048 6.21921L15.6471 16.7704C15.6801 16.8805 15.6471 16.9354 15.5482 16.9353H13.405C13.3682 16.9393 13.3312 16.9298 13.3008 16.9086C13.2705 16.8874 13.2489 16.8559 13.2401 16.8199L12.3993 14.3799ZM9.1845 12.3026H11.7894L11.7522 12.18L11.6926 11.9859L11.6501 11.8496L11.5822 11.635L11.4379 11.1831L11.311 10.7825L10.9814 9.73896C10.8994 9.47955 10.8207 9.21911 10.7453 8.95771L10.685 8.74555L10.6145 8.4947L10.507 8.1059L10.4868 8.03265H10.4704C10.3879 8.42837 10.2874 8.82013 10.1694 9.20673L9.92476 9.99355L9.79017 10.4282L9.65433 10.8683C9.62981 10.9478 9.60533 11.0264 9.58089 11.1041L9.50793 11.3343L9.43535 11.5591L9.36316 11.7784L9.29135 11.9922C9.26754 12.0626 9.24377 12.132 9.22002 12.2005L9.1845 12.3026ZM17.8726 7.88424C17.7045 7.89096 17.5368 7.86214 17.3805 7.79964C17.2243 7.73714 17.083 7.64238 16.9659 7.52155C16.8491 7.39541 16.7585 7.24746 16.6991 7.0862C16.6396 6.92493 16.6126 6.75353 16.6196 6.5818C16.6136 6.4118 16.6436 6.24244 16.7075 6.0848C16.7714 5.92715 16.8679 5.78476 16.9905 5.66692C17.2272 5.43975 17.5424 5.31262 17.8704 5.31201L17.9055 5.3124C18.3012 5.3124 18.6118 5.43054 18.8371 5.66683C18.9508 5.78964 19.0392 5.93366 19.0972 6.09067C19.1552 6.24767 19.1816 6.41457 19.175 6.5818C19.182 6.75422 19.1542 6.92629 19.0933 7.08775C19.0324 7.24921 18.9397 7.39677 18.8206 7.52164C18.7004 7.64009 18.5577 7.7333 18.401 7.79579C18.2442 7.85827 18.0765 7.88877 17.9078 7.88548L17.8726 7.88424ZM16.735 16.7704V8.88993C16.7349 8.79099 16.7789 8.74152 16.8669 8.74152H18.8948C18.9827 8.74152 19.0266 8.79099 19.0267 8.88993V16.7704C19.0267 16.8805 18.9827 16.9354 18.8948 16.9353H16.8834C16.7897 16.9353 16.7404 16.886 16.7355 16.7873L16.735 16.7704Z" fill="#FF9A00"/>
</g>
<defs>
<clipPath id="clip0_248_156435">
<rect width="24.576" height="24" fill="white" transform="translate(0.488281)"/>
</clipPath>
</defs>
</svg>
