<svg width="24" height="24" viewBox="0 0 24 24" fill="none" xmlns="http://www.w3.org/2000/svg">
<path d="M3.52575 21.398L1.64062 0.253418H22.3556L20.4686 21.3948L11.9856 23.7466L3.52575 21.398Z" fill="#1572B6"/>
<path d="M12 21.9491L18.8548 20.0486L20.4675 1.98218H12V21.9491Z" fill="#33A9DC"/>
<path d="M12 9.64292H15.4316L15.6686 6.98736H12V4.39404H18.5029L18.4406 5.08986L17.8031 12.2362H12V9.64292Z" fill="white"/>
<path d="M12.0152 16.378L12.0038 16.3813L9.11569 15.6015L8.931 13.5332H6.32812L6.69131 17.6051L12.0034 19.0795L12.0152 19.0761V16.378Z" fill="#EBEBEB"/>
<path d="M15.2126 12.1265L14.9002 15.5993L12.0078 16.3801V19.0782L17.3242 17.6048L17.3632 17.1667L17.8143 12.1265H15.2126Z" fill="white"/>
<path d="M12.0078 4.39404V6.98736H5.74384L5.69191 6.40461L5.57378 5.08986L5.51172 4.39404H12.0078ZM11.999 9.64329V12.2366H9.14734L9.09541 11.6539L8.97709 10.3391L8.91522 9.64329H11.999Z" fill="#EBEBEB"/>
</svg>
