<svg width="26" height="24" viewBox="0 0 26 24" fill="none" xmlns="http://www.w3.org/2000/svg">
<g clip-path="url(#clip0_248_156441)">
<path d="M21.1366 0H4.72062C2.4673 0 0.640625 1.82668 0.640625 4.08V19.8816C0.640625 22.1349 2.4673 23.9616 4.72062 23.9616H21.1366C23.3899 23.9616 25.2166 22.1349 25.2166 19.8816V4.08C25.2166 1.82668 23.3899 0 21.1366 0Z" fill="#49021F"/>
<path d="M9.56417 6.2686V16.7704C9.56417 16.8804 9.5147 16.9354 9.41575 16.9354H7.42087C7.33281 16.9354 7.28887 16.8804 7.28906 16.7704V6.2686C7.28906 6.18073 7.3385 6.13676 7.43738 6.1367H9.43226C9.44904 6.13432 9.46613 6.13563 9.48235 6.14053C9.49857 6.14543 9.51352 6.1538 9.52618 6.16507C9.53883 6.17633 9.54888 6.19022 9.55562 6.20576C9.56237 6.2213 9.56564 6.23813 9.56522 6.25507L9.56417 6.2686ZM15.5724 17.0991L15.4662 17.1002C14.7074 17.1118 13.9556 16.9541 13.2654 16.6386C12.6223 16.341 12.0848 15.8552 11.7239 15.2455C11.3592 14.6398 11.1725 13.8849 11.1636 12.9808L11.1633 12.9127C11.1571 12.156 11.3505 11.4111 11.724 10.753C12.0983 10.1006 12.6443 9.56327 13.3025 9.19939L13.3561 9.1702C14.0703 8.77455 14.9331 8.57673 15.9444 8.57673L15.9657 8.57683L16.0131 8.57788L16.0666 8.57999L16.1264 8.58307L16.1924 8.58719L16.2645 8.59247L16.4274 8.60582L16.4719 8.60966V5.36198C16.4719 5.28511 16.5049 5.24662 16.5708 5.24649H18.6482C18.6616 5.24456 18.6753 5.24579 18.6882 5.25008C18.7011 5.25437 18.7127 5.2616 18.7223 5.27119C18.7319 5.28079 18.7392 5.29249 18.7435 5.30536C18.7477 5.31824 18.749 5.33194 18.747 5.34537V15.0889C18.7477 15.2925 18.756 15.4959 18.7718 15.6989L18.7874 15.9114L18.8011 16.1093L18.813 16.2923C18.815 16.3266 18.8067 16.3607 18.789 16.3901C18.7714 16.4195 18.7453 16.4429 18.7141 16.4573C18.1782 16.6807 17.62 16.8465 17.049 16.9518C16.5618 17.0418 16.0679 17.0911 15.5725 17.0991M16.472 15.0559V10.5551C16.3829 10.531 16.292 10.5144 16.2001 10.5057C16.0878 10.4943 15.9749 10.4888 15.8621 10.4891C15.4619 10.4852 15.0666 10.5755 14.708 10.753C14.3588 10.9267 14.0606 11.188 13.8425 11.5114C13.6171 11.841 13.5044 12.2752 13.5045 12.8138C13.4965 13.1731 13.5552 13.5309 13.6776 13.8688C13.7772 14.1412 13.9347 14.3887 14.1392 14.5943C14.335 14.7835 14.5721 14.9246 14.8317 15.0064C15.1059 15.0952 15.3925 15.1397 15.6807 15.1384C15.8345 15.1384 15.9774 15.1329 16.1094 15.1218C16.2146 15.1139 16.319 15.0965 16.4212 15.07L16.472 15.0559Z" fill="#FF3366"/>
</g>
<defs>
<clipPath id="clip0_248_156441">
<rect width="24.576" height="24" fill="white" transform="translate(0.640625)"/>
</clipPath>
</defs>
</svg>
