<svg width="25" height="24" viewBox="0 0 25 24" fill="none" xmlns="http://www.w3.org/2000/svg">
<g clip-path="url(#clip0_248_156444)">
<path d="M20.5624 0H4.14641C1.89308 0 0.0664062 1.82668 0.0664062 4.08V19.8816C0.0664062 22.1349 1.89308 23.9616 4.14641 23.9616H20.5624C22.8157 23.9616 24.6424 22.1349 24.6424 19.8816V4.08C24.6424 1.82668 22.8157 0 20.5624 0Z" fill="#001E36"/>
<path d="M5.60156 16.8034V6.26859C5.60156 6.19173 5.63455 6.15326 5.70054 6.1532L5.80489 6.15291L5.98326 6.15099L6.23113 6.1461L7.06153 6.12853L7.95193 6.11202C8.26508 6.10658 8.57555 6.10382 8.88332 6.10376C9.71852 6.10376 10.4219 6.20818 10.9936 6.41701C11.5093 6.59132 11.9796 6.87856 12.3702 7.25778C12.7014 7.58642 12.9573 7.983 13.1204 8.42014C13.2745 8.84556 13.3527 9.29476 13.3513 9.74725C13.3513 10.6267 13.1479 11.3521 12.7412 11.9235C12.3434 12.4809 11.7886 12.9072 11.1476 13.148L11.0926 13.1682C10.4232 13.4179 9.68185 13.5081 8.86883 13.5138L8.74249 13.5142L8.555 13.5132L8.46044 13.5119L8.35503 13.5094L8.29148 13.5069L8.25289 13.5049L8.15795 13.5014L8.04188 13.499L7.86716 13.4978L7.82828 13.4977V16.7869C7.83117 16.8071 7.82933 16.8276 7.82289 16.847C7.81645 16.8663 7.8056 16.8839 7.7912 16.8983C7.7768 16.9127 7.75924 16.9235 7.73991 16.93C7.72059 16.9364 7.70003 16.9382 7.67987 16.9353H5.71705C5.63999 16.9354 5.6015 16.8914 5.60156 16.8034ZM7.82838 8.13157V11.5676C7.9711 11.5787 8.10294 11.5842 8.2239 11.5841H8.76803C9.14317 11.5828 9.51613 11.527 9.87519 11.4183L9.94681 11.396C10.2735 11.299 10.5654 11.1101 10.7877 10.8518C10.9943 10.6082 11.1013 10.2724 11.1087 9.84459L11.1092 9.79669C11.1178 9.47778 11.0349 9.16309 10.87 8.88997C10.6969 8.62576 10.4465 8.42138 10.1529 8.30466C9.76971 8.15563 9.36033 8.08556 8.94937 8.09864L8.74028 8.09922L8.60838 8.10037L8.48252 8.102L8.30492 8.10546L8.17532 8.1091L8.10803 8.1116L8.01807 8.11582L7.94147 8.12053L7.89779 8.12398L7.86006 8.12763L7.84345 8.12955L7.82838 8.13157ZM19.7257 10.9428C19.438 10.7951 19.133 10.6841 18.8177 10.6124L18.7447 10.5967C18.3978 10.5171 18.0437 10.4732 17.6879 10.4658L17.599 10.4648C17.3904 10.4591 17.1821 10.4841 16.9807 10.539C16.8526 10.5676 16.7387 10.6405 16.6591 10.745C16.6054 10.8286 16.5768 10.9259 16.5768 11.0253C16.5798 11.1217 16.6145 11.2144 16.6756 11.289C16.7632 11.3913 16.8683 11.4771 16.9862 11.5422L17.0219 11.5611C17.257 11.6876 17.4992 11.8005 17.7473 11.899C18.3005 12.0843 18.8292 12.3362 19.3217 12.6491C19.6572 12.8609 19.9348 13.1526 20.1296 13.4983C20.2933 13.8255 20.3753 14.1875 20.3687 14.5533C20.3784 15.0364 20.2404 15.511 19.973 15.9135C19.6866 16.322 19.2889 16.6396 18.8271 16.8284C18.3435 17.0409 17.7497 17.1507 17.0456 17.1579L16.9725 17.1583C16.536 17.1626 16.1002 17.1244 15.6711 17.0442L15.5793 17.0264C15.2181 16.9601 14.8664 16.8493 14.5324 16.6966C14.4989 16.6793 14.4705 16.6534 14.4502 16.6215C14.4299 16.5896 14.4185 16.5529 14.4171 16.5152V14.7182C14.4151 14.7008 14.4179 14.6831 14.4251 14.6672C14.4324 14.6512 14.4439 14.6375 14.4583 14.6275C14.4725 14.6195 14.4887 14.6159 14.5049 14.6174C14.5211 14.6189 14.5365 14.6253 14.549 14.6358C14.9434 14.8683 15.3717 15.038 15.8184 15.1386C16.2121 15.2373 16.616 15.2899 17.0219 15.2953C17.4065 15.2953 17.6895 15.2458 17.8709 15.1469C17.9528 15.1093 18.0221 15.0489 18.0704 14.9728C18.1187 14.8967 18.1439 14.8083 18.143 14.7182C18.143 14.5755 18.0606 14.4381 17.8957 14.3061C17.8266 14.2508 17.7275 14.1906 17.5984 14.1256L17.5367 14.0953L17.4708 14.0643L17.4363 14.0485L17.3639 14.0165L17.3261 14.0001L17.2474 13.9671L17.2064 13.9503L17.1214 13.9162L17.0772 13.899L16.9857 13.8637L16.89 13.8279C16.3723 13.6479 15.8814 13.3983 15.4309 13.086C15.1086 12.8619 14.8433 12.5655 14.6561 12.2205C14.494 11.8956 14.4121 11.5366 14.4171 11.1736C14.416 10.7374 14.5359 10.3094 14.7632 9.93714C15.0224 9.52722 15.3945 9.20082 15.8349 8.99749C16.3184 8.75582 16.9229 8.6349 17.6483 8.6347C18.0732 8.63129 18.4977 8.66162 18.9178 8.72542C19.222 8.76405 19.5194 8.84449 19.8016 8.96446C19.847 8.97752 19.8836 9.01102 19.9005 9.05518C19.9117 9.09541 19.9172 9.13698 19.917 9.17883V10.844C19.9194 10.8833 19.9005 10.921 19.8675 10.9428C19.8455 10.9538 19.8212 10.9595 19.7966 10.9595C19.772 10.9595 19.7477 10.9538 19.7257 10.9428Z" fill="#31A8FF"/>
</g>
<defs>
<clipPath id="clip0_248_156444">
<rect width="24.576" height="24" fill="white" transform="translate(0.0664062)"/>
</clipPath>
</defs>
</svg>
