<svg width="24" height="24" viewBox="0 0 24 24" fill="none" xmlns="http://www.w3.org/2000/svg">
<path d="M6.69219 2.5874H17.2859C19.5547 2.5874 21.3922 4.4249 21.3922 6.69365V17.2874C21.3922 19.5562 19.5547 21.3937 17.2859 21.3937H6.69219C4.42344 21.3937 2.58594 19.5562 2.58594 17.2874V6.69365C2.58594 4.4249 4.42344 2.5874 6.69219 2.5874Z" fill="url(#paint0_linear_248_156450)"/>
<path d="M16.9695 3.6001H7.01328C5.11953 3.6001 3.58203 5.1376 3.58203 7.03135V16.9876C3.58203 18.8813 5.11953 20.4188 7.01328 20.4188H16.9695C18.8633 20.4188 20.4008 18.8813 20.4008 16.9876V7.0126C20.4008 5.11885 18.8633 3.6001 16.9695 3.6001ZM20.1195 17.0251C20.1195 18.7501 18.732 20.1376 17.007 20.1376H6.97578C5.26953 20.1376 3.86328 18.7501 3.86328 17.0251V6.9751C3.86328 5.2501 5.25078 3.8626 6.97578 3.8626H17.0258C18.732 3.8626 20.1383 5.2501 20.1383 6.9751V17.0251H20.1195Z" fill="white"/>
<path d="M12.0195 4.2749C7.78203 4.2749 4.33203 7.7249 4.33203 11.9624C4.33203 16.1999 7.78203 19.6499 12.0195 19.6499C16.2758 19.6499 19.707 16.1999 19.707 11.9624C19.707 7.7249 16.257 4.2749 12.0195 4.2749ZM12.0195 19.5374C7.83828 19.5374 4.44453 16.1437 4.44453 11.9624C4.44453 7.78115 7.83828 4.3874 12.0195 4.3874C16.2008 4.3874 19.5945 7.78115 19.5945 11.9624C19.5945 16.1437 16.2008 19.5374 12.0195 19.5374Z" fill="#69C5F3"/>
<path d="M12.018 5.8501C8.62422 5.8501 5.88672 8.5876 5.88672 11.9813C5.88672 15.3751 8.62422 18.0938 12.018 18.0938C15.4117 18.0938 18.1492 15.3563 18.1492 11.9626C18.1492 8.56885 15.393 5.8501 12.018 5.8501ZM12.018 17.9626C8.69922 17.9626 6.01797 15.2813 6.01797 11.9626C6.01797 8.64385 8.69922 5.9626 12.018 5.9626C15.3367 5.9626 18.018 8.64385 18.018 11.9626C18.018 15.2813 15.318 17.9626 12.018 17.9626Z" fill="#68C5F4"/>
<path d="M6.1483 13.3687H17.8483C18.3358 13.3687 18.7108 13.7624 18.7108 14.2312C18.7108 14.7187 18.317 15.0937 17.8483 15.0937H6.1483C5.6608 15.0937 5.2858 14.6999 5.2858 14.2312C5.26705 13.7624 5.6608 13.3687 6.1483 13.3687Z" fill="white"/>
<path d="M6.11172 13.5376H17.8492C18.2242 13.5376 18.543 13.8376 18.543 14.2313V14.2501C18.543 14.6251 18.243 14.9438 17.8492 14.9438H6.11172C5.73672 14.9438 5.41797 14.6438 5.41797 14.2501V14.2126C5.43672 13.8376 5.73672 13.5376 6.11172 13.5376Z" fill="#0A93E9"/>
<path d="M5.83203 14.8688H18.1508L18.2445 14.8125H5.73828L5.83203 14.8688Z" fill="#1694EA"/>
<path d="M5.54922 14.6437H18.4117L18.4492 14.5874H5.51172L5.54922 14.6437Z" fill="#319DEC"/>
<path d="M5.4375 14.2874H18.5438V14.2124H5.4375V14.2874Z" fill="#65B1EE"/>
<path d="M5.56875 13.8188H18.4313L18.45 13.8563L18.4688 13.8938H5.53125L5.55 13.8563L5.56875 13.8188Z" fill="#8EC6F3"/>
<path d="M5.85078 13.5938H18.1508L18.207 13.6125L18.2633 13.65H5.73828L5.79453 13.6125L5.85078 13.5938Z" fill="#95CAF3"/>
<path d="M17.5117 13.5376H17.418C17.418 13.5376 17.7367 13.7626 17.7367 14.2688C17.7367 14.7376 17.418 14.9438 17.418 14.9438H17.5117C17.5117 14.9438 17.8305 14.7938 17.8305 14.2688C17.8305 13.7063 17.5117 13.5376 17.5117 13.5376Z" fill="url(#paint1_linear_248_156450)"/>
<path d="M16.6133 13.5376H16.5195C16.5195 13.5376 16.8008 13.8001 16.8008 14.2688C16.8008 14.6813 16.5195 14.9438 16.5195 14.9438H16.6133C16.6133 14.9438 16.8945 14.7376 16.8945 14.2688C16.8758 13.7626 16.6133 13.5376 16.6133 13.5376Z" fill="url(#paint2_linear_248_156450)"/>
<path d="M11.9453 13.5376H12.0391V14.9438H11.9453V13.5376Z" fill="url(#paint3_linear_248_156450)"/>
<path d="M11.0258 13.5376H11.1195C11.1195 13.5376 11.082 13.8938 11.082 14.2688C11.082 14.6063 11.1195 14.9438 11.1195 14.9438H11.0258C11.0258 14.9438 10.9883 14.6063 10.9883 14.2688C10.9883 13.8938 11.0258 13.5376 11.0258 13.5376Z" fill="url(#paint4_linear_248_156450)"/>
<path d="M10.125 13.5376H10.2188C10.2188 13.5376 10.125 13.8938 10.125 14.2688C10.125 14.6063 10.2188 14.9438 10.2188 14.9438H10.125C10.125 14.9438 10.0312 14.6063 10.0312 14.2688C10.0312 13.8938 10.125 13.5376 10.125 13.5376Z" fill="url(#paint5_linear_248_156450)"/>
<path d="M9.20547 13.5376H9.29922C9.29922 13.5376 9.16797 13.8938 9.16797 14.2688C9.16797 14.6063 9.29922 14.9438 9.29922 14.9438H9.20547C9.20547 14.9438 9.07422 14.6063 9.07422 14.2688C9.07422 13.8938 9.20547 13.5376 9.20547 13.5376Z" fill="url(#paint6_linear_248_156450)"/>
<path d="M8.28906 13.5376H8.38281C8.38281 13.5376 8.19531 13.8376 8.19531 14.2688C8.19531 14.6438 8.38281 14.9438 8.38281 14.9438H8.28906C8.28906 14.9438 8.10156 14.6438 8.10156 14.2688C8.10156 13.8376 8.28906 13.5376 8.28906 13.5376Z" fill="url(#paint7_linear_248_156450)"/>
<path d="M7.36719 13.5376H7.46094C7.46094 13.5376 7.17969 13.8001 7.17969 14.2688C7.17969 14.6813 7.46094 14.9438 7.46094 14.9438H7.36719C7.36719 14.9438 7.08594 14.7376 7.08594 14.2688C7.10469 13.7626 7.36719 13.5376 7.36719 13.5376Z" fill="url(#paint8_linear_248_156450)"/>
<path d="M6.46719 13.5376H6.56094C6.56094 13.5376 6.24219 13.7626 6.24219 14.2688C6.24219 14.7376 6.56094 14.9438 6.56094 14.9438H6.46719C6.46719 14.9438 6.14844 14.7938 6.14844 14.2688C6.14844 13.7063 6.46719 13.5376 6.46719 13.5376Z" fill="url(#paint9_linear_248_156450)"/>
<path d="M11.6252 6.39367L17.4752 16.5187C17.719 16.9312 17.569 17.4562 17.1565 17.6999C16.744 17.9437 16.219 17.7937 15.9752 17.3812L10.1252 7.25617C9.88146 6.84367 10.0315 6.31867 10.444 6.07492C10.8565 5.83117 11.3815 5.98117 11.6252 6.39367Z" fill="white"/>
<path d="M11.4738 6.46879L17.3425 16.6313C17.53 16.95 17.4175 17.3813 17.0988 17.5688L17.0613 17.5875C16.7425 17.775 16.3113 17.6625 16.1238 17.3438L10.255 7.16254C10.0675 6.84379 10.18 6.41254 10.4988 6.22504L10.5175 6.20629C10.855 6.01879 11.2863 6.13129 11.4738 6.46879Z" fill="url(#paint10_linear_248_156450)"/>
<path d="M10.1641 6.8813L16.3141 17.55L16.3516 17.5688L16.3891 17.5875L16.4266 17.6063L10.1641 6.7688V6.8813Z" fill="url(#paint11_linear_248_156450)"/>
<path d="M10.2188 6.525L16.65 17.6625H16.725L10.2563 6.46875L10.2375 6.50625L10.2188 6.525Z" fill="url(#paint12_linear_248_156450)"/>
<path d="M10.4805 6.2438L17.043 17.5875L17.0992 17.55L10.5367 6.2063L10.4805 6.2438Z" fill="url(#paint13_linear_248_156450)"/>
<path d="M10.9492 6.1313L17.3617 17.25L17.343 17.2875L17.3242 17.325L10.8555 6.11255H10.893L10.9492 6.1313Z" fill="url(#paint14_linear_248_156450)"/>
<path d="M11.2883 6.24375L17.4383 16.8937V17.0062L11.1758 6.1875L11.2133 6.20625L11.2508 6.225L11.2883 6.24375Z" fill="url(#paint15_linear_248_156450)"/>
<path d="M17.1555 16.2937L17.118 16.2187C17.118 16.2187 17.0805 16.5937 16.668 16.8562C16.2742 17.0999 15.918 16.9312 15.918 16.9312L15.9555 17.0062C15.9555 17.0062 16.2555 17.2124 16.7055 16.9312C17.1555 16.6687 17.1555 16.2937 17.1555 16.2937ZM16.6867 15.5062L16.6492 15.4312C16.6492 15.4312 16.5555 15.8062 16.1617 16.0312C15.8055 16.2562 15.4492 16.1437 15.4492 16.1437L15.4867 16.2187C15.4867 16.2187 15.8055 16.3499 16.218 16.1062C16.6305 15.8624 16.6867 15.5062 16.6867 15.5062Z" fill="#3C98EA"/>
<path d="M16.2375 14.7188L16.2 14.6438C16.2 14.6438 16.0312 14.9625 15.675 15.1688C15.3562 15.3563 15 15.3563 15 15.3563L15.0375 15.4313C15.0375 15.4313 15.375 15.4313 15.7125 15.2438C16.0688 15.0375 16.2375 14.7188 16.2375 14.7188Z" fill="#4CA4ED"/>
<path d="M15.7875 13.9312L15.75 13.8562C15.75 13.8562 15.5063 14.175 15.1875 14.3437C14.8875 14.5125 14.5312 14.5687 14.5312 14.5687L14.5687 14.6437C14.5687 14.6437 14.925 14.5875 15.225 14.4187C15.525 14.25 15.7875 13.9312 15.7875 13.9312Z" fill="#4DA7EE"/>
<path d="M13.9305 10.7437L13.968 10.8187C13.968 10.8187 13.6492 10.9687 13.3305 11.1374C13.0305 11.3062 12.768 11.5312 12.768 11.5312L12.7305 11.4562C12.7305 11.4562 13.0117 11.2312 13.293 11.0624C13.6117 10.8937 13.9305 10.7437 13.9305 10.7437Z" fill="url(#paint16_linear_248_156450)"/>
<path d="M13.4813 9.9563L13.5187 10.0313C13.5187 10.0313 13.1625 10.1438 12.8625 10.3313C12.5625 10.5 12.3187 10.7625 12.3187 10.7625L12.2812 10.6875C12.2812 10.6875 12.525 10.425 12.825 10.2563C13.125 10.05 13.4813 9.9563 13.4813 9.9563Z" fill="url(#paint17_linear_248_156450)"/>
<path d="M12.6382 9.3374C12.8819 9.2624 13.0694 9.2249 13.0694 9.2249L13.0319 9.1499C13.0319 9.1499 12.8632 9.16865 12.6757 9.24365C12.5632 9.28115 12.5444 9.3749 12.6382 9.3374Z" fill="#9DD4F7"/>
<path d="M12.1141 7.59379L12.1516 7.66879C12.1516 7.66879 11.7953 7.57504 11.3828 7.80004C11.0266 8.02504 10.9516 8.38129 10.9516 8.38129L10.9141 8.30629C10.9141 8.30629 10.9516 7.98754 11.3453 7.74379C11.7578 7.48129 12.1141 7.59379 12.1141 7.59379Z" fill="url(#paint18_linear_248_156450)"/>
<path d="M11.6609 6.78751L11.7172 6.86251C11.7172 6.86251 11.3422 6.71251 10.9109 6.95626C10.4984 7.21876 10.4984 7.57501 10.4984 7.57501L10.4422 7.50001C10.4422 7.50001 10.4047 7.18126 10.8547 6.90001C11.3234 6.61876 11.6609 6.78751 11.6609 6.78751Z" fill="url(#paint19_linear_248_156450)"/>
<path d="M10.4065 13.3688C12.0377 10.5563 13.9127 7.29377 13.9127 7.29377C14.1565 6.88127 14.0065 6.35627 13.594 6.11252C13.1815 5.86877 12.6565 6.01877 12.4127 6.43127C12.4127 6.43127 10.1252 10.4063 8.40021 13.3688H10.4065ZM9.39396 15.0938C8.60646 16.4438 8.06271 17.4188 8.06271 17.4188C7.81896 17.8313 7.29396 17.9813 6.88146 17.7375C6.46896 17.4938 6.31896 16.9688 6.56271 16.5563C6.56271 16.5563 6.88146 15.975 7.38771 15.1125C8.02521 15.0938 9.18771 15.0938 9.39396 15.0938Z" fill="white"/>
<path d="M10.1988 13.3688C11.8488 10.5188 13.7613 7.20007 13.7613 7.20007C13.9488 6.88132 13.8363 6.45007 13.5175 6.26257L13.4988 6.24382C13.18 6.05632 12.7488 6.16882 12.5613 6.48757C12.5613 6.48757 10.3113 10.3876 8.5863 13.3688H10.1988ZM9.20505 15.0938C8.45505 16.4063 7.9113 17.3438 7.9113 17.3438C7.7238 17.6626 7.3113 17.7751 6.9738 17.5876H6.9363C6.61755 17.4001 6.50505 16.9876 6.69255 16.6501C6.69255 16.6501 7.0488 16.0313 7.59255 15.0938H9.20505Z" fill="url(#paint20_linear_248_156450)"/>
<path d="M10.1437 13.3687L13.875 6.91865V6.80615C13.875 6.80615 11.8125 10.3874 10.0875 13.3687H10.1437ZM9.13125 15.0937L7.70625 17.5687L7.65 17.6062L7.59375 17.6249C7.59375 17.6249 8.23125 16.5187 9.05625 15.0937H9.13125Z" fill="url(#paint21_linear_248_156450)"/>
<path d="M9.86172 13.3688L13.7992 6.56255L13.7805 6.52505L13.7617 6.48755C13.7617 6.48755 11.6055 10.2188 9.80547 13.35L9.86172 13.3688ZM8.86797 15.0938L7.36797 17.6813H7.29297C7.29297 17.6813 7.93047 16.575 8.79297 15.075C8.83047 15.0938 8.86797 15.0938 8.86797 15.0938Z" fill="url(#paint22_linear_248_156450)"/>
<path d="M9.45 13.3687C11.3063 10.1624 13.5375 6.28115 13.5375 6.28115L13.4813 6.24365L9.35625 13.3687H9.45ZM8.4375 15.1124C7.6125 16.5562 6.99375 17.6249 6.99375 17.6249L6.9375 17.5874C6.9375 17.5874 7.5375 16.5374 8.3625 15.1124C8.4 15.0937 8.38125 15.0937 8.4375 15.1124Z" fill="url(#paint23_linear_248_156450)"/>
<path d="M9 13.3687C10.8562 10.1624 13.1625 6.1499 13.1625 6.1499H13.0875C13.0875 6.1499 10.7812 10.1437 8.925 13.3687H9ZM7.9125 15.0937C7.1625 16.3874 6.65625 17.2687 6.65625 17.2687L6.675 17.3062L6.69375 17.3437C6.69375 17.3437 7.2375 16.4062 8.00625 15.0937H7.9125Z" fill="url(#paint24_linear_248_156450)"/>
<path d="M8.72031 13.3688L12.8453 6.2251L12.8078 6.24385L12.7703 6.2626L12.7516 6.28135C12.7516 6.28135 10.4641 10.2376 8.66406 13.3688H8.72031ZM7.72656 15.0938C7.07031 16.2376 6.60156 17.0438 6.60156 17.0438V16.8938C6.60156 16.8938 7.01406 16.1813 7.65156 15.0751C7.68906 15.0938 7.68906 15.0938 7.72656 15.0938Z" fill="url(#paint25_linear_248_156450)"/>
<path d="M12.3734 6.78754L12.3359 6.86253C12.3359 6.86253 12.6734 6.69379 13.1234 6.93754C13.5359 7.16254 13.5547 7.55629 13.5547 7.55629L13.5922 7.48129C13.5922 7.48129 13.6297 7.12503 13.1609 6.86253C12.6922 6.60003 12.3734 6.78754 12.3734 6.78754Z" fill="url(#paint26_linear_248_156450)"/>
<path d="M11.9242 7.59364L11.8867 7.66864C11.8867 7.66864 12.2617 7.55614 12.6555 7.78114C13.0305 7.98739 13.1055 8.34364 13.1055 8.34364L13.143 8.26864C13.143 8.26864 13.1055 7.93114 12.693 7.70614C12.2617 7.46239 11.9242 7.59364 11.9242 7.59364Z" fill="url(#paint27_linear_248_156450)"/>
<path d="M11.4555 8.38135L11.418 8.45635C11.418 8.45635 11.7555 8.4376 12.1305 8.6626C12.468 8.8501 12.6367 9.1501 12.6367 9.1501L12.6742 9.0751C12.6742 9.0751 12.5055 8.7751 12.168 8.5876C11.8117 8.38135 11.4555 8.38135 11.4555 8.38135Z" fill="url(#paint28_linear_248_156450)"/>
<path d="M11.0063 9.1875L10.9688 9.2625C10.9688 9.2625 11.3438 9.31875 11.6625 9.50625C11.9625 9.675 12.1875 9.95625 12.1875 9.95625L12.225 9.88125C12.225 9.88125 12 9.6 11.7 9.43125C11.3813 9.24375 11.0063 9.1875 11.0063 9.1875Z" fill="url(#paint29_linear_248_156450)"/>
<path d="M10.5375 9.9751L10.5 10.0501C10.5 10.0501 10.8562 10.1438 11.175 10.3313C11.475 10.5001 11.7188 10.7438 11.7188 10.7438L11.7563 10.6688C11.7563 10.6688 11.5125 10.4251 11.2125 10.2563C10.9125 10.0876 10.5375 9.9751 10.5375 9.9751Z" fill="url(#paint30_linear_248_156450)"/>
<path d="M10.0875 10.7625L10.0312 10.8375C10.0312 10.8375 10.3687 10.9687 10.6875 11.1562C10.9875 11.325 11.25 11.5312 11.25 11.5312L11.2875 11.4562C11.2875 11.4562 11.025 11.25 10.725 11.0812C10.425 10.9125 10.0875 10.7625 10.0875 10.7625Z" fill="url(#paint31_linear_248_156450)"/>
<path d="M9.58203 11.6438L9.61953 11.5688L10.8383 12.2626L10.8008 12.3376L9.58203 11.6438Z" fill="url(#paint32_linear_248_156450)"/>
<path d="M9.13281 12.45L9.17031 12.375C9.17031 12.375 9.47031 12.6 9.78906 12.7687C10.0891 12.9375 10.3891 13.0687 10.3891 13.0687L10.3516 13.125C10.3516 13.125 10.0328 12.9938 9.73281 12.825C9.41406 12.6563 9.13281 12.45 9.13281 12.45Z" fill="url(#paint33_linear_248_156450)"/>
<path d="M8.82969 13.3688C8.73594 13.2938 8.67969 13.2376 8.67969 13.2376L8.71719 13.1626C8.71719 13.1626 8.82969 13.2563 8.97969 13.3688H8.82969Z" fill="#73B9F1"/>
<path d="M8.10078 15.0938C8.17578 15.15 8.25078 15.2063 8.34453 15.2625C8.68203 15.45 9.01953 15.4313 9.01953 15.4313L8.98203 15.5062C8.98203 15.5062 8.64453 15.525 8.30703 15.3375C8.17578 15.2625 8.06328 15.1688 7.98828 15.0938H8.10078Z" fill="url(#paint34_linear_248_156450)"/>
<path d="M7.29297 15.6187L7.33047 15.5437C7.33047 15.5437 7.42422 15.9187 7.83672 16.1437C8.21172 16.35 8.54922 16.2375 8.54922 16.2375L8.51172 16.3125C8.51172 16.3125 8.21172 16.4437 7.79922 16.2187C7.36797 15.975 7.29297 15.6187 7.29297 15.6187Z" fill="url(#paint35_linear_248_156450)"/>
<path d="M6.82422 16.4251L6.86172 16.3501C6.86172 16.3501 6.89922 16.7438 7.34922 16.9876C7.76172 17.2126 8.08047 17.0438 8.08047 17.0438L8.02422 17.1188C8.02422 17.1188 7.74297 17.3251 7.29297 17.0626C6.82422 16.8001 6.82422 16.4251 6.82422 16.4251Z" fill="url(#paint36_linear_248_156450)"/>
<path d="M12.9016 21.4126L20.9266 4.55635L18.9016 3.6001L10.5391 21.1313C10.5391 21.1313 10.8016 21.2626 11.1391 21.4126H12.9016Z" fill="url(#paint37_linear_248_156450)"/>
<path d="M17.6437 2.5874L21.3937 4.36865V9.7499C20.1 9.13115 11.4375 5.00615 11.4375 5.00615C11.4375 5.00615 12.0375 3.7499 12.6 2.5874H17.6437Z" fill="url(#paint38_radial_248_156450)"/>
<path d="M8.34463 20.6626C8.28838 20.7751 8.19463 20.9064 8.21338 21.1126C8.23213 21.8814 9.48838 22.5939 10.2196 22.5939C10.7259 22.5939 10.8946 22.3876 11.0821 22.0126C11.2696 21.6376 8.55088 20.2126 8.34463 20.6626Z" fill="url(#paint39_radial_248_156450)"/>
<path d="M16.9867 4.7063C16.9867 4.7063 18.918 5.17505 19.068 5.3063C19.218 5.43755 18.8242 6.18755 18.7492 6.30005C18.1305 7.05005 16.1992 11.1938 16.1992 11.1938L14.418 10.1813C14.418 10.1813 16.0117 7.2188 16.5742 6.1688C16.9305 5.4563 16.9867 4.7063 16.9867 4.7063Z" fill="url(#paint40_linear_248_156450)"/>
<path d="M21.4497 3.73122C21.7872 3.97497 22.2372 3.91872 22.5934 3.86247C22.8372 3.82497 22.4622 4.18122 22.0497 5.00622C21.6372 5.83122 21.6559 5.88747 21.5997 5.83122C21.5434 5.77497 19.6872 4.72497 19.7434 4.63122C19.8184 4.53747 20.1184 2.49372 20.2684 2.54997C20.8122 2.68122 20.9059 3.33747 21.4497 3.73122Z" fill="url(#paint41_linear_248_156450)"/>
<path d="M18.5636 6.0374C18.6948 5.83115 19.2948 4.55615 20.2511 4.55615C20.6823 4.55615 21.5073 5.64365 21.5823 5.79365C21.6386 5.9249 21.4511 6.4499 21.3573 6.20615C21.2448 5.9249 20.7761 5.3249 20.2698 5.3249C19.7636 5.3249 19.0698 5.90615 18.9011 6.1124C18.7323 6.2999 18.4323 6.24365 18.5636 6.0374Z" fill="url(#paint42_linear_248_156450)"/>
<path d="M18.5236 5.96245C18.6173 5.81245 19.0486 5.1562 19.2548 4.94995C19.4611 4.7437 19.9861 4.19995 20.4361 4.12495C20.8861 4.04995 21.3548 4.9687 21.2048 5.1562C21.0923 5.28745 20.9048 5.13745 20.6798 4.94995C20.4548 4.7812 20.3048 4.4437 19.5923 4.98745C19.3486 5.17495 19.1048 5.32495 18.5423 6.1312C18.3923 6.33745 18.4298 6.11245 18.5236 5.96245Z" fill="url(#paint43_linear_248_156450)"/>
<path d="M16.2009 11.4376C16.2759 11.2876 16.3696 11.0626 16.1634 10.8939C15.9384 10.7251 14.8884 10.1626 14.7009 10.1251C14.5134 10.0876 14.3634 10.1251 14.2884 10.2564C14.2134 10.3876 8.45715 20.2501 8.34465 20.5314C8.23215 20.8126 8.2134 21.0189 8.38215 21.0751C8.5509 21.1314 10.4821 22.0501 10.6696 22.2564C10.8571 22.4626 10.9509 22.2376 11.0259 22.1251C11.3821 21.6751 16.1071 11.5876 16.2009 11.4376Z" fill="url(#paint44_linear_248_156450)"/>
<path d="M18.6578 5.925C18.7516 5.79375 18.9766 5.41875 19.2578 5.08125C19.4453 4.85625 20.4578 4.36875 20.6828 3.58125C20.8141 3.15 20.6078 2.71875 20.3266 2.53125C19.3703 1.95 17.7203 1.03125 15.3016 1.03125C13.6703 1.03125 12.9766 1.575 12.9766 1.575H13.8016L16.6703 2.7L17.0266 4.2C17.0266 4.2 17.0641 4.70625 16.8953 5.2875C16.7828 5.75625 16.7453 6.0375 16.5766 6.50625C16.7078 6.5625 17.0078 6.35625 17.3453 6.45C17.6453 6.525 17.8328 6.9375 18.0391 6.69375C18.3953 6.225 18.5078 6.13125 18.6578 5.925Z" fill="url(#paint45_linear_248_156450)"/>
<path d="M16.9695 4.7624C16.8195 3.3749 16.482 2.0624 12.957 2.08115C13.182 1.85615 13.7258 1.63115 13.7258 1.63115L12.957 1.5749C12.957 1.5749 13.0695 1.48115 13.2945 1.4624C15.357 1.29365 17.1945 1.7249 17.0633 4.40615C17.0445 4.8374 17.007 5.0249 16.9695 4.7624Z" fill="url(#paint46_linear_248_156450)"/>
<path d="M12.957 2.08114C13.2008 1.98739 13.5383 1.93114 14.1758 1.96864C14.9633 2.00614 15.957 2.30614 16.3695 2.68114C16.5758 2.86864 16.557 2.71864 16.332 2.47489C15.7508 1.79989 14.8695 1.64989 13.7258 1.63114C13.5945 1.61239 13.1633 1.85614 12.957 2.08114Z" fill="url(#paint47_linear_248_156450)"/>
<path d="M22.632 3.86255L23.6633 4.38755C23.6633 4.38755 23.2695 4.91255 22.9508 5.51255C22.6133 6.15005 22.3883 6.8438 22.3883 6.8438L21.3945 6.2438C21.3945 6.2438 21.6383 5.5688 21.9945 4.91255C22.2758 4.3688 22.632 3.86255 22.632 3.86255Z" fill="url(#paint48_linear_248_156450)"/>
<path d="M23.6636 4.38739C23.7386 4.42489 23.4948 5.00614 23.1386 5.68114C22.7823 6.35614 22.4448 6.88114 22.3886 6.84364C22.3136 6.80614 22.5573 6.22489 22.9136 5.54989C23.2511 4.87489 23.5886 4.34989 23.6636 4.38739Z" fill="#BFC0D0"/>
<defs>
<linearGradient id="paint0_linear_248_156450" x1="11.9885" y1="21.4058" x2="11.9885" y2="2.5844" gradientUnits="userSpaceOnUse">
<stop stop-color="#1578E4"/>
<stop offset="1" stop-color="#00C3F2"/>
</linearGradient>
<linearGradient id="paint1_linear_248_156450" x1="17.6312" y1="14.9375" x2="17.6312" y2="13.5346" gradientUnits="userSpaceOnUse">
<stop stop-color="#1492E7"/>
<stop offset="1" stop-color="#DBEDFB"/>
</linearGradient>
<linearGradient id="paint2_linear_248_156450" x1="16.6962" y1="14.9375" x2="16.6962" y2="13.5346" gradientUnits="userSpaceOnUse">
<stop stop-color="#1492E7"/>
<stop offset="1" stop-color="#DBEDFB"/>
</linearGradient>
<linearGradient id="paint3_linear_248_156450" x1="11.9916" y1="14.9375" x2="11.9916" y2="13.5346" gradientUnits="userSpaceOnUse">
<stop stop-color="#1492E7"/>
<stop offset="1" stop-color="#DBEDFB"/>
</linearGradient>
<linearGradient id="paint4_linear_248_156450" x1="11.0543" y1="14.9375" x2="11.0543" y2="13.5346" gradientUnits="userSpaceOnUse">
<stop stop-color="#1492E7"/>
<stop offset="1" stop-color="#DBEDFB"/>
</linearGradient>
<linearGradient id="paint5_linear_248_156450" x1="10.1171" y1="14.9375" x2="10.1171" y2="13.5346" gradientUnits="userSpaceOnUse">
<stop stop-color="#1492E7"/>
<stop offset="1" stop-color="#DBEDFB"/>
</linearGradient>
<linearGradient id="paint6_linear_248_156450" x1="9.17978" y1="14.9375" x2="9.17978" y2="13.5346" gradientUnits="userSpaceOnUse">
<stop stop-color="#1492E7"/>
<stop offset="1" stop-color="#DBEDFB"/>
</linearGradient>
<linearGradient id="paint7_linear_248_156450" x1="8.24556" y1="14.9375" x2="8.24556" y2="13.5346" gradientUnits="userSpaceOnUse">
<stop stop-color="#1492E7"/>
<stop offset="1" stop-color="#DBEDFB"/>
</linearGradient>
<linearGradient id="paint8_linear_248_156450" x1="7.28319" y1="14.9375" x2="7.28319" y2="13.5346" gradientUnits="userSpaceOnUse">
<stop stop-color="#1492E7"/>
<stop offset="1" stop-color="#DBEDFB"/>
</linearGradient>
<linearGradient id="paint9_linear_248_156450" x1="6.34663" y1="14.9375" x2="6.34663" y2="13.5346" gradientUnits="userSpaceOnUse">
<stop stop-color="#1492E7"/>
<stop offset="1" stop-color="#DBEDFB"/>
</linearGradient>
<linearGradient id="paint10_linear_248_156450" x1="13.795" y1="17.6719" x2="13.795" y2="6.12042" gradientUnits="userSpaceOnUse">
<stop stop-color="#1285E7"/>
<stop offset="1" stop-color="#00B5EF"/>
</linearGradient>
<linearGradient id="paint11_linear_248_156450" x1="16.4011" y1="17.6209" x2="10.1417" y2="6.7793" gradientUnits="userSpaceOnUse">
<stop stop-color="#2B90E7"/>
<stop offset="1" stop-color="#00B6EF"/>
</linearGradient>
<linearGradient id="paint12_linear_248_156450" x1="16.7012" y1="17.6863" x2="10.2343" y2="6.48544" gradientUnits="userSpaceOnUse">
<stop stop-color="#3795EA"/>
<stop offset="1" stop-color="#49C4F2"/>
</linearGradient>
<linearGradient id="paint13_linear_248_156450" x1="17.0666" y1="17.5754" x2="10.5127" y2="6.22374" gradientUnits="userSpaceOnUse">
<stop stop-color="#3696EA"/>
<stop offset="1" stop-color="#90D9F6"/>
</linearGradient>
<linearGradient id="paint14_linear_248_156450" x1="17.3583" y1="17.3123" x2="10.8864" y2="6.10261" gradientUnits="userSpaceOnUse">
<stop stop-color="#3097EA"/>
<stop offset="1" stop-color="#B5E5F9"/>
</linearGradient>
<linearGradient id="paint15_linear_248_156450" x1="17.4538" y1="17.0036" x2="11.2022" y2="6.1755" gradientUnits="userSpaceOnUse">
<stop stop-color="#3A98EA"/>
<stop offset="1" stop-color="#BCE7FA"/>
</linearGradient>
<linearGradient id="paint16_linear_248_156450" x1="12.7457" y1="11.4798" x2="13.9599" y2="10.7787" gradientUnits="userSpaceOnUse">
<stop stop-color="#00A4EC"/>
<stop offset="1" stop-color="#B9DFF6"/>
</linearGradient>
<linearGradient id="paint17_linear_248_156450" x1="12.2788" y1="10.6699" x2="13.4929" y2="9.96886" gradientUnits="userSpaceOnUse">
<stop stop-color="#00A4EC"/>
<stop offset="1" stop-color="#B9DFF6"/>
</linearGradient>
<linearGradient id="paint18_linear_248_156450" x1="10.8634" y1="8.2161" x2="12.0698" y2="7.51973" gradientUnits="userSpaceOnUse">
<stop stop-color="#00B4EF"/>
<stop offset="1" stop-color="#C3E9FA"/>
</linearGradient>
<linearGradient id="paint19_linear_248_156450" x1="10.3904" y1="7.40195" x2="11.6047" y2="6.70089" gradientUnits="userSpaceOnUse">
<stop stop-color="#00B4EF"/>
<stop offset="1" stop-color="#C3E9FA"/>
</linearGradient>
<linearGradient id="paint20_linear_248_156450" x1="10.2299" y1="17.7003" x2="10.2299" y2="6.14894" gradientUnits="userSpaceOnUse">
<stop stop-color="#1285E7"/>
<stop offset="1" stop-color="#00B5EF"/>
</linearGradient>
<linearGradient id="paint21_linear_248_156450" x1="7.62769" y1="17.6495" x2="13.887" y2="6.80822" gradientUnits="userSpaceOnUse">
<stop stop-color="#3194E9"/>
<stop offset="1" stop-color="#71CFF4"/>
</linearGradient>
<linearGradient id="paint22_linear_248_156450" x1="7.32353" y1="17.7154" x2="13.7912" y2="6.51305" gradientUnits="userSpaceOnUse">
<stop stop-color="#5AA6EC"/>
<stop offset="1" stop-color="#A2DEF8"/>
</linearGradient>
<linearGradient id="paint23_linear_248_156450" x1="6.95963" y1="17.6033" x2="13.5135" y2="6.25172" gradientUnits="userSpaceOnUse">
<stop stop-color="#66ABEE"/>
<stop offset="1" stop-color="#BEE8FA"/>
</linearGradient>
<linearGradient id="paint24_linear_248_156450" x1="6.669" y1="17.3403" x2="13.1409" y2="6.13059" gradientUnits="userSpaceOnUse">
<stop stop-color="#7BB6F0"/>
<stop offset="1" stop-color="#B1E3F9"/>
</linearGradient>
<linearGradient id="paint25_linear_248_156450" x1="6.57456" y1="17.0386" x2="12.8294" y2="6.20485" gradientUnits="userSpaceOnUse">
<stop stop-color="#5AA6EC"/>
<stop offset="1" stop-color="#AFE3F9"/>
</linearGradient>
<linearGradient id="paint26_linear_248_156450" x1="12.4413" y1="6.69172" x2="13.6556" y2="7.39278" gradientUnits="userSpaceOnUse">
<stop stop-color="#C1E7FA"/>
<stop offset="1" stop-color="#89D4F5"/>
</linearGradient>
<linearGradient id="paint27_linear_248_156450" x1="11.9722" y1="7.50551" x2="13.1865" y2="8.20639" gradientUnits="userSpaceOnUse">
<stop stop-color="#C1E7FA"/>
<stop offset="1" stop-color="#89D4F5"/>
</linearGradient>
<linearGradient id="paint28_linear_248_156450" x1="11.4879" y1="8.34479" x2="12.702" y2="9.04566" gradientUnits="userSpaceOnUse">
<stop stop-color="#C1E7FA"/>
<stop offset="1" stop-color="#89D4F5"/>
</linearGradient>
<linearGradient id="paint29_linear_248_156450" x1="11.0177" y1="9.16031" x2="12.2317" y2="9.86137" gradientUnits="userSpaceOnUse">
<stop stop-color="#B0DFF8"/>
<stop offset="1" stop-color="#52BDF2"/>
</linearGradient>
<linearGradient id="paint30_linear_248_156450" x1="10.5469" y1="9.97585" x2="11.7613" y2="10.6769" gradientUnits="userSpaceOnUse">
<stop stop-color="#B4DEF8"/>
<stop offset="1" stop-color="#4EB5F0"/>
</linearGradient>
<linearGradient id="paint31_linear_248_156450" x1="10.0763" y1="10.7911" x2="11.2903" y2="11.492" gradientUnits="userSpaceOnUse">
<stop stop-color="#B4DEF8"/>
<stop offset="1" stop-color="#4EB5F0"/>
</linearGradient>
<linearGradient id="paint32_linear_248_156450" x1="9.60809" y1="11.6037" x2="10.822" y2="12.3046" gradientUnits="userSpaceOnUse">
<stop stop-color="#B5DDF8"/>
<stop offset="1" stop-color="#46AEEE"/>
</linearGradient>
<linearGradient id="paint33_linear_248_156450" x1="9.13938" y1="12.4162" x2="10.3536" y2="13.1173" gradientUnits="userSpaceOnUse">
<stop stop-color="#96CEF4"/>
<stop offset="1" stop-color="#46AAEE"/>
</linearGradient>
<linearGradient id="paint34_linear_248_156450" x1="8.01059" y1="15.0253" x2="8.94097" y2="15.5625" gradientUnits="userSpaceOnUse">
<stop stop-color="#8FC1F2"/>
<stop offset="1" stop-color="#3193EA"/>
</linearGradient>
<linearGradient id="paint35_linear_248_156450" x1="7.24309" y1="15.6969" x2="8.45734" y2="16.398" gradientUnits="userSpaceOnUse">
<stop stop-color="#8FC1F2"/>
<stop offset="1" stop-color="#3193EA"/>
</linearGradient>
<linearGradient id="paint36_linear_248_156450" x1="6.77247" y1="16.5119" x2="7.98653" y2="17.213" gradientUnits="userSpaceOnUse">
<stop stop-color="#8FC1F2"/>
<stop offset="1" stop-color="#3193EA"/>
</linearGradient>
<linearGradient id="paint37_linear_248_156450" x1="14.3869" y1="12.175" x2="16.7226" y2="13.3141" gradientUnits="userSpaceOnUse">
<stop offset="0.001"/>
<stop offset="1" stop-opacity="0"/>
</linearGradient>
<radialGradient id="paint38_radial_248_156450" cx="0" cy="0" r="1" gradientUnits="userSpaceOnUse" gradientTransform="translate(17.8575 4.71179) rotate(116.706) scale(3.03385 5.24968)">
<stop/>
<stop offset="1" stop-opacity="0"/>
</radialGradient>
<radialGradient id="paint39_radial_248_156450" cx="0" cy="0" r="1" gradientUnits="userSpaceOnUse" gradientTransform="translate(9.60221 21.5547) rotate(26.1166) scale(1.48144 0.84328)">
<stop offset="0.417" stop-color="#0C0C12"/>
<stop offset="1" stop-color="#3D4651"/>
</radialGradient>
<linearGradient id="paint40_linear_248_156450" x1="15.8913" y1="7.34517" x2="17.7221" y2="8.27799" gradientUnits="userSpaceOnUse">
<stop stop-color="#344351"/>
<stop offset="0.1" stop-color="#9697A0"/>
<stop offset="0.181" stop-color="#8B8C95"/>
<stop offset="0.351" stop-color="#787A83"/>
<stop offset="0.47" stop-color="#71747D"/>
<stop offset="0.591" stop-color="#777982"/>
<stop offset="0.749" stop-color="#87898F"/>
<stop offset="0.8" stop-color="#8E8F94"/>
<stop offset="0.849" stop-color="#3D3B42"/>
<stop offset="0.9" stop-color="#606E84"/>
</linearGradient>
<linearGradient id="paint41_linear_248_156450" x1="22.1029" y1="5.48566" x2="20.0365" y2="2.69322" gradientUnits="userSpaceOnUse">
<stop offset="0.27" stop-color="#262B33"/>
<stop offset="0.45" stop-color="#74747E"/>
<stop offset="0.54" stop-color="#B0B0BC"/>
<stop offset="0.73" stop-color="#74747E"/>
</linearGradient>
<linearGradient id="paint42_linear_248_156450" x1="18.4777" y1="5.7044" x2="21.5289" y2="5.31028" gradientUnits="userSpaceOnUse">
<stop offset="0.14" stop-color="#606E84"/>
<stop offset="0.4" stop-color="#9899A5"/>
<stop offset="0.73" stop-color="#475768"/>
<stop offset="0.92" stop-color="#262B33"/>
</linearGradient>
<linearGradient id="paint43_linear_248_156450" x1="19.8976" y1="5.96395" x2="19.6015" y2="4.28507" gradientUnits="userSpaceOnUse">
<stop stop-color="#101215" stop-opacity="0.1"/>
<stop offset="0.46" stop-color="#101215" stop-opacity="0.7"/>
<stop offset="0.7" stop-color="#474951"/>
<stop offset="0.91" stop-color="#7B7D88"/>
</linearGradient>
<linearGradient id="paint44_linear_248_156450" x1="10.9005" y1="15.3228" x2="13.7328" y2="16.7165" gradientUnits="userSpaceOnUse">
<stop offset="0.115" stop-color="#2C3952"/>
<stop offset="0.374" stop-color="#3D414E"/>
<stop offset="0.55" stop-color="#474A54"/>
<stop offset="0.754" stop-color="#4E5057"/>
<stop offset="0.892" stop-color="#323945"/>
<stop offset="1" stop-color="#143052"/>
</linearGradient>
<linearGradient id="paint45_linear_248_156450" x1="15.2843" y1="5.93981" x2="17.4747" y2="1.13381" gradientUnits="userSpaceOnUse">
<stop offset="0.118" stop-color="#6D7078" stop-opacity="0"/>
<stop offset="0.2" stop-color="#6D7078" stop-opacity="0.7"/>
<stop offset="0.34" stop-color="#35363A"/>
<stop offset="0.374" stop-color="#1D1F22"/>
<stop offset="0.4" stop-color="#101215"/>
<stop offset="0.5" stop-color="#16171A"/>
<stop offset="0.56" stop-color="#292A2E"/>
<stop offset="0.688" stop-color="#4B4D51"/>
<stop offset="0.807" stop-color="#63666B"/>
<stop offset="0.915" stop-color="#72757B"/>
<stop offset="1" stop-color="#777A80"/>
</linearGradient>
<linearGradient id="paint46_linear_248_156450" x1="12.9503" y1="3.15684" x2="17.0682" y2="3.15684" gradientUnits="userSpaceOnUse">
<stop stop-color="#4A4D56"/>
<stop offset="1" stop-color="#29292D"/>
</linearGradient>
<linearGradient id="paint47_linear_248_156450" x1="12.9503" y1="2.19308" x2="16.5109" y2="2.19308" gradientUnits="userSpaceOnUse">
<stop stop-color="#767880"/>
<stop offset="0.41" stop-color="#0C0A0B"/>
</linearGradient>
<linearGradient id="paint48_linear_248_156450" x1="21.813" y1="6.5168" x2="23.1958" y2="4.12167" gradientUnits="userSpaceOnUse">
<stop stop-color="#858997"/>
<stop offset="0.23" stop-color="#244668"/>
<stop offset="0.282" stop-color="#1A3249"/>
<stop offset="0.4" stop-color="#040506"/>
<stop offset="0.464" stop-color="#313236"/>
<stop offset="0.546" stop-color="#65656E"/>
<stop offset="0.607" stop-color="#868691"/>
<stop offset="0.64" stop-color="#92929E"/>
</linearGradient>
</defs>
</svg>
