<svg width="25" height="24" viewBox="0 0 25 24" fill="none" xmlns="http://www.w3.org/2000/svg">
<g clip-path="url(#clip0_248_156432)">
<path d="M20.4241 0H4.06569C1.82027 0 0 1.82668 0 4.08V19.8816C0 22.1349 1.82027 23.9616 4.06569 23.9616H20.4241C22.6695 23.9616 24.4898 22.1349 24.4898 19.8816V4.08C24.4898 1.82668 22.6695 0 20.4241 0Z" fill="#470137"/>
<path d="M12.8751 6.30153L9.81933 11.3629L13.0886 16.7375C13.1097 16.7751 13.1155 16.8193 13.1051 16.8611C13.1 16.879 13.0891 16.8834 13.0724 16.8841L13.0538 16.8838L13.0312 16.8832C13.019 16.8832 13.0053 16.8838 12.9901 16.8863H10.6329L10.5866 16.8855C10.4596 16.8822 10.3681 16.8639 10.3123 16.7704C10.0942 16.344 9.87511 15.9182 9.65508 15.4928C9.45825 15.1134 9.25607 14.7368 9.04857 14.3631L8.95693 14.1986C8.70875 13.756 8.46505 13.3108 8.22587 12.8632H8.20941C7.98853 13.3061 7.76125 13.7458 7.52762 14.1821C7.29197 14.6218 7.05922 15.0587 6.82937 15.4928C6.59936 15.9271 6.36388 16.3586 6.123 16.7869C6.08425 16.8743 6.01987 16.8925 5.93024 16.8955L5.89293 16.8961H3.64226L3.6325 16.8964L3.60036 16.8993C3.58247 16.9003 3.57175 16.8965 3.56831 16.8694C3.56218 16.8292 3.57096 16.7881 3.59299 16.754L6.76365 11.5278L3.67507 6.28521C3.64229 6.24143 3.63681 6.20572 3.65862 6.17807C3.67074 6.16399 3.68596 6.15293 3.70308 6.14576C3.7202 6.1386 3.73874 6.13553 3.75724 6.13679H6.07364C6.12415 6.13405 6.17464 6.14251 6.22153 6.16156C6.26075 6.18393 6.29452 6.21494 6.32006 6.25228C6.51719 6.69196 6.73626 7.13158 6.97727 7.57113C7.21638 8.00785 7.46008 8.44201 7.70833 8.87356C7.95278 9.29843 8.18022 9.73292 8.39012 10.176H8.40657C8.62169 9.73302 8.84349 9.29336 9.07191 8.85715C9.29628 8.42847 9.52625 7.99705 9.76184 7.56287C9.99437 7.13433 10.2217 6.70294 10.4436 6.26879C10.4563 6.22809 10.4788 6.19123 10.5093 6.16156C10.5499 6.14093 10.5955 6.13234 10.6408 6.13679H12.7929C12.8127 6.13184 12.8336 6.13348 12.8523 6.14144C12.8711 6.14941 12.8868 6.16328 12.8971 6.18097C12.9073 6.19866 12.9116 6.21922 12.9092 6.23954C12.9068 6.25986 12.8979 6.27885 12.8838 6.29366L12.8751 6.30153ZM17.7032 17.0989L17.59 17.1002C16.8338 17.1118 16.0845 16.9541 15.3967 16.6386C14.7559 16.341 14.2203 15.8552 13.8606 15.2455C13.4979 14.641 13.3119 13.8879 13.3024 12.9861L13.302 12.9127C13.2959 12.156 13.4886 11.4111 13.8607 10.753C14.2332 10.1016 14.7761 9.56489 15.4307 9.20102L15.4871 9.1703C16.1988 8.77459 17.0586 8.57673 18.0664 8.57673L18.1104 8.57721L18.1607 8.57884L18.2171 8.58134L18.2799 8.58499L18.3853 8.59247L18.5047 8.60207L18.592 8.60975V5.36188C18.592 5.28502 18.6249 5.24655 18.6906 5.24649H20.7606C20.774 5.24456 20.7877 5.24579 20.8005 5.25008C20.8133 5.25437 20.825 5.2616 20.8345 5.27119C20.8441 5.28079 20.8513 5.29249 20.8556 5.30536C20.8599 5.31824 20.8611 5.33194 20.8592 5.34537V15.0889C20.8592 15.2525 20.8655 15.4287 20.8781 15.6173L20.9087 16.045L20.925 16.2923C20.927 16.3266 20.9187 16.3607 20.9011 16.3901C20.8835 16.4195 20.8574 16.4429 20.8263 16.4573C20.2923 16.6807 19.7361 16.8465 19.1671 16.9518C18.684 17.0413 18.1944 17.0905 17.7032 17.0989ZM18.592 15.0559V10.5551C18.5033 10.531 18.4126 10.5144 18.321 10.5057C18.2091 10.4943 18.0967 10.4888 17.9842 10.4891C17.5855 10.4851 17.1915 10.5755 16.8342 10.753C16.4862 10.9267 16.1891 11.188 15.9717 11.5114C15.7548 11.8297 15.6427 12.2454 15.6353 12.7584L15.6349 12.8138C15.6269 13.1731 15.6854 13.5309 15.8074 13.8688C15.9067 14.1412 16.0637 14.3887 16.2675 14.5943C16.4626 14.7835 16.6988 14.9245 16.9574 15.0064C17.2307 15.0952 17.5163 15.1397 17.8035 15.1384C17.9567 15.1384 18.0991 15.1329 18.2306 15.1218C18.3355 15.1139 18.4395 15.0965 18.5413 15.07L18.592 15.0559Z" fill="#FF61F6"/>
</g>
<defs>
<clipPath id="clip0_248_156432">
<rect width="24.4898" height="24" fill="white"/>
</clipPath>
</defs>
</svg>
