<svg width="496" height="496" viewBox="0 0 496 496" fill="none" xmlns="http://www.w3.org/2000/svg">
<path d="M258.823 294.274C291.214 295.698 355.994 283.596 355.994 233.409C355.994 195.446 355.994 147.536 355.994 116.234C355.994 110.898 349.403 108.392 345.852 112.375L246.073 224.276C243.764 226.866 239.713 226.866 237.404 224.276L137.625 112.375C134.074 108.392 127.482 110.904 127.482 116.24V244.087C127.482 270.782 127.482 328.098 172.331 366.886C213.074 402.123 257.044 399.988 286.587 402.123" stroke="#F7BC00" stroke-width="30.974" stroke-linecap="round"/>
<path fill-rule="evenodd" clip-rule="evenodd" d="M127.483 124.539C127.483 102.956 154.144 92.7954 168.509 108.905L258.824 210.193L349.139 108.905C363.442 92.8639 390.165 102.849 390.165 124.524V240.136C390.165 274.544 367.25 294.871 343.659 305.5C320.389 315.984 293.295 318.867 275.159 318.07C265.732 317.655 258.426 309.678 258.84 300.251C259.255 290.824 267.232 283.518 276.659 283.933C290.913 284.559 312.404 282.103 329.623 274.346C346.52 266.733 355.995 255.915 355.995 240.136V152.559L276.358 241.872C267.016 252.349 250.632 252.349 241.29 241.872L161.653 152.559V250.814C161.653 278.085 162.273 327.549 200.592 360.69C231.844 387.719 264.388 389.512 293.241 391.102C297.203 391.32 301.095 391.534 304.904 391.81C314.315 392.49 321.393 400.671 320.713 410.082C320.032 419.493 311.851 426.571 302.44 425.891C299.273 425.662 295.8 425.491 292.062 425.307C263.304 423.889 218.899 421.7 178.24 386.535C127.458 342.616 127.475 278.44 127.483 251.737C127.483 251.424 127.483 251.116 127.483 250.814V124.539Z" stroke="#F7BC00" stroke-width="1.93587" stroke-linecap="round"/>
</svg>
