<svg width="34" height="35" viewBox="0 0 34 35" fill="none" xmlns="http://www.w3.org/2000/svg">
<path d="M17.099 25.3177C16.647 24.7507 15.8169 23.6794 14.6297 21.7501C13.9681 20.675 13.3169 19.532 12.8318 18.3903C12.3444 17.2433 12.0462 16.1465 12.0462 15.1566C12.0462 12.3767 14.3189 10.1014 17.0966 10.1014C19.875 10.1014 22.1518 12.3781 22.1518 15.1566C22.1518 16.1465 21.8536 17.2433 21.3662 18.3903C20.8811 19.532 20.2299 20.675 19.5683 21.7501C18.381 23.6794 17.551 24.7507 17.099 25.3177ZM11.1966 15.1566C11.1966 16.3063 11.54 17.5228 12.0498 18.7225C12.5596 19.9225 13.2368 21.1078 13.9061 22.1954C15.2214 24.3328 16.1126 25.4456 16.5452 25.9856L16.5648 26.0101C16.8486 26.3644 17.3494 26.3644 17.6331 26.0101L17.6528 25.9856C18.0853 25.4456 18.9766 24.3328 20.2919 22.1954C20.9612 21.1078 21.6383 19.9225 22.1482 18.7225C22.658 17.5228 23.0014 16.3063 23.0014 15.1566C23.0014 11.9089 20.3443 9.25173 17.0966 9.25173C13.8488 9.25173 11.1966 11.9083 11.1966 15.1566ZM17.0966 14.0137C17.7339 14.0137 18.2394 14.5193 18.2394 15.1566C18.2394 15.7913 17.7365 16.2946 17.0966 16.2946C16.4593 16.2946 15.9585 15.7939 15.9585 15.1566C15.9585 14.5167 16.4619 14.0137 17.0966 14.0137ZM19.0891 15.1566C19.0891 14.05 18.2031 13.1641 17.0966 13.1641C15.9899 13.1641 15.1089 14.0501 15.1089 15.1566C15.1089 16.2631 15.99 17.1442 17.0966 17.1442C18.203 17.1442 19.0891 16.2632 19.0891 15.1566Z" fill="#242424" stroke="#242424" stroke-width="0.0678252"/>
</svg>
