<svg width="34" height="35" viewBox="0 0 34 35" fill="none" xmlns="http://www.w3.org/2000/svg">
<path d="M13.6422 9.56626C13.6346 9.57248 13.4713 9.70844 13.3082 9.90166C13.0641 10.1909 12.9363 10.4693 12.9363 10.7284C12.9363 11.0108 13.0286 11.2495 13.1923 11.4178C13.3561 11.5862 13.5887 11.6815 13.8641 11.6815C14.1395 11.6815 14.3721 11.5862 14.5358 11.4178C14.6995 11.2495 14.7919 11.0108 14.7919 10.7284C14.7919 10.4693 14.6641 10.191 14.4199 9.90166C14.2569 9.70844 14.0935 9.57248 14.086 9.56628L14.086 9.56628C13.9573 9.45969 13.7709 9.45968 13.6422 9.56626ZM13.6422 9.56626L13.6638 9.5924M13.6422 9.56626C13.6422 9.56627 13.6422 9.56627 13.6421 9.56628L13.6638 9.5924M13.6638 9.5924C13.78 9.49619 13.9482 9.49619 14.0644 9.5924C14.0712 9.59803 14.2328 9.73252 14.394 9.92353C14.6355 10.2097 14.758 10.4805 14.758 10.7284C14.758 11.2782 14.3988 11.6476 13.8641 11.6476C13.3294 11.6476 12.9702 11.2782 12.9702 10.7284C12.9702 10.4805 13.0926 10.2097 13.3341 9.92353C13.4953 9.73252 13.657 9.59803 13.6638 9.5924ZM20.9011 11.4178C20.7374 11.5862 20.5048 11.6815 20.2294 11.6815C19.954 11.6815 19.7214 11.5862 19.5576 11.4178C19.3939 11.2495 19.3016 11.0108 19.3016 10.7284C19.3016 10.4693 19.4294 10.1909 19.6735 9.90166C19.8364 9.7086 19.9997 9.57271 20.0074 9.56628L20.9011 11.4178ZM20.9011 11.4178C21.0648 11.2495 21.1572 11.0108 21.1572 10.7284M20.9011 11.4178L21.1572 10.7284M21.1572 10.7284C21.1572 10.4693 21.0294 10.191 20.7852 9.90166C20.6222 9.70844 20.4588 9.57248 20.4513 9.56626L21.1572 10.7284ZM17.0467 10.9506C17.3452 10.9506 17.597 10.8473 17.7743 10.6648C17.9514 10.4824 18.0516 10.2236 18.0516 9.91718C18.0516 9.63522 17.9107 9.32996 17.6411 9.0105C17.459 8.79471 17.2769 8.64322 17.2687 8.63637C17.1399 8.52977 16.9536 8.52977 16.8248 8.63637C16.8165 8.64322 16.6345 8.79472 16.4524 9.01049C16.1828 9.32996 16.0419 9.63522 16.0419 9.91718C16.0419 10.2236 16.142 10.4824 16.3192 10.6648C16.4964 10.8473 16.7483 10.9506 17.0467 10.9506ZM17.0471 9.38721C17.1249 9.47278 17.199 9.56638 17.2553 9.65638C17.3183 9.75722 17.3556 9.84852 17.3556 9.91718C17.3556 10.0398 17.3291 10.1226 17.2809 10.1749C17.2332 10.2265 17.1583 10.2547 17.0467 10.2547C16.9351 10.2547 16.8603 10.2266 16.8126 10.1749C16.7644 10.1227 16.7379 10.0399 16.7379 9.91718C16.7379 9.84913 16.7753 9.75802 16.8385 9.65705C16.8949 9.56695 16.9692 9.47308 17.0471 9.38721ZM25.5997 23.425H24.1962V17.4094C24.1962 16.4127 23.3854 15.6018 22.3887 15.6018H21.0413V12.1352C21.0413 11.943 20.8854 11.7872 20.6933 11.7872H19.7655C19.5733 11.7872 19.4175 11.943 19.4175 12.1352V15.6018H17.9202V11.6285C17.9202 11.4363 17.7644 11.2805 17.5722 11.2805H16.5212C16.329 11.2805 16.1732 11.4363 16.1732 11.6285V15.6018H14.676V12.1352C14.676 11.943 14.5202 11.7872 14.328 11.7872H13.4002C13.208 11.7872 13.0522 11.943 13.0522 12.1352V15.6018H11.7048C10.7081 15.6018 9.89723 16.4127 9.89723 17.4094V23.425H8.49377C8.30158 23.425 8.14577 23.5808 8.14577 23.773V25.2325C8.14577 25.4247 8.30158 25.5805 8.49377 25.5805H25.5997C25.7919 25.5805 25.9477 25.4247 25.9477 25.2325V23.773C25.9477 23.5808 25.7919 23.425 25.5997 23.425ZM20.1135 15.6018V12.4832H20.3453V15.6018H20.1135ZM16.8692 15.6018V11.9765H17.2242V15.6018H16.8692ZM13.7482 15.6018V12.4832H13.98V15.6018H13.7482ZM25.2517 24.121L25.2517 24.8846H8.84175V24.121H25.2517ZM22.3887 16.2978C23.0016 16.2978 23.5002 16.7965 23.5002 17.4094V23.425H10.5932V17.4094C10.5932 16.7965 11.0919 16.2978 11.7048 16.2978H22.3887ZM13.8641 10.3225C13.9241 10.3916 13.9793 10.4643 14.0209 10.5326C14.0692 10.6117 14.0959 10.6799 14.0959 10.7284C14.0959 10.8254 14.076 10.888 14.0408 10.9265C14.0063 10.9643 13.951 10.9855 13.8641 10.9855C13.7772 10.9855 13.7219 10.9643 13.6874 10.9265C13.6522 10.888 13.6323 10.8254 13.6323 10.7284C13.6323 10.6799 13.659 10.6117 13.7073 10.5325C13.7489 10.4642 13.8041 10.3916 13.8641 10.3225ZM20.2294 10.3225C20.2894 10.3916 20.3446 10.4643 20.3862 10.5326C20.4344 10.6117 20.4612 10.6799 20.4612 10.7284C20.4612 10.8254 20.4413 10.888 20.4061 10.9265C20.3716 10.9643 20.3163 10.9855 20.2294 10.9855C20.1425 10.9855 20.0872 10.9643 20.0527 10.9265C20.0175 10.888 19.9976 10.8254 19.9976 10.7284C19.9976 10.6799 20.0243 10.6117 20.0726 10.5325C20.1142 10.4642 20.1694 10.3916 20.2294 10.3225Z" fill="#242424" stroke="#242424" stroke-width="0.0678252"/>
</svg>
