<svg width="35" height="35" viewBox="0 0 35 35" fill="none" xmlns="http://www.w3.org/2000/svg">
<path d="M17.6505 8.88045L17.6508 8.88185C17.6549 8.88103 17.6601 8.87979 17.6662 8.87832C17.7105 8.86763 17.8054 8.84478 17.9213 8.88415L17.926 8.88573L17.9259 8.88589L32.0568 14.8523C32.2029 14.9137 32.2681 15.0655 32.2681 15.2043C32.2681 15.343 32.2029 15.4948 32.0568 15.5563L26.9562 17.7075V22.4317C26.9562 22.9489 26.6103 23.3817 26.1262 23.7702C25.6388 24.1612 24.966 24.5297 24.1458 24.8501C22.5053 25.4908 20.2644 25.9538 17.7818 25.9538C15.2991 25.9538 13.0582 25.4908 11.4178 24.8501C10.5976 24.5297 9.92479 24.1612 9.43735 23.7702C8.95323 23.3817 8.60729 22.9489 8.60729 22.4317V17.7075L6.23076 16.7049V19.97C6.41911 20.0937 6.54478 20.3039 6.54478 20.5476C6.54478 20.9319 6.23321 21.2434 5.84891 21.2434C5.46462 21.2434 5.15304 20.9319 5.15304 20.5476C5.15304 20.3039 5.27871 20.0937 5.46706 19.97V16.3827L3.50669 15.5563L3.50665 15.5562L3.53299 15.4937C3.30671 15.3985 3.30671 15.01 3.53299 14.9148L17.6505 8.88045ZM17.6505 8.88045L17.6376 8.88589L3.50669 14.8523L17.6505 8.88045ZM17.9259 21.5226L26.1926 18.0297V22.4317C26.1926 22.499 26.1599 22.6027 26.0721 22.7336C25.9853 22.863 25.8482 23.0137 25.6488 23.1736C25.2487 23.4946 24.6398 23.8345 23.8707 24.1349C22.3325 24.7357 20.1702 25.1901 17.7818 25.1901C15.3934 25.1901 13.231 24.7357 11.6928 24.1349C10.9237 23.8345 10.3148 23.4946 9.91477 23.1736L9.87476 23.2235L9.91477 23.1736C9.71538 23.0137 9.57822 22.863 9.49144 22.7336C9.40369 22.6027 9.37098 22.499 9.37098 22.4317V18.0297L17.6376 21.5226L17.6376 21.5227L17.6386 21.5231C17.7295 21.5598 17.834 21.5598 17.9249 21.5231L17.9249 21.5231L17.9259 21.5226ZM4.62978 15.2091L17.7818 9.65005L30.9338 15.2091L17.7818 20.7585L4.62978 15.2091Z" fill="#242424" stroke="#242424" stroke-width="0.13565"/>
</svg>
